<?xml version="1.0" encoding="utf-8"?>
<!-- Generator: Adobe Illustrator 25.2.0, SVG Export Plug-In . SVG Version: 6.00 Build 0)  -->
<svg version="1.1" id="logoipsum" xmlns="http://www.w3.org/2000/svg" xmlns:xlink="http://www.w3.org/1999/xlink" x="0px" y="0px"
	 viewBox="0 0 126.7 29.5" style="enable-background:new 0 0 126.7 29.5;" xml:space="preserve">
<style type="text/css">
	.st0{fill:#FFFFFF;}
</style>
<path class="st0" d="M36,9h3.2v13H36V9z M40.5,17.1c0-3.2,2-5.2,5-5.2s5,1.9,5,5.2s-1.9,5.2-5,5.2S40.5,20.4,40.5,17.1z M47.3,17.1
	c0-1.8-0.7-2.8-1.8-2.8s-1.8,1-1.8,2.8s0.7,2.8,1.8,2.8S47.3,19,47.3,17.1L47.3,17.1z M51.8,22.7h3.1c0.3,0.7,1,1.1,1.7,1
	c1.2,0,1.9-0.7,1.9-1.6v-1.8h0c-0.5,1.1-1.7,1.8-3,1.8c-2.3,0-3.9-1.8-3.9-4.9s1.5-5,4-5c1.3-0.1,2.5,0.7,3,1.9h-0.1v-1.8h3.2V22
	c0,2.3-2.1,3.8-5.1,3.8C53.7,25.8,52,24.5,51.8,22.7L51.8,22.7z M58.5,17.1c0-1.6-0.7-2.6-1.9-2.6s-1.8,1-1.8,2.6s0.7,2.5,1.8,2.5
	S58.5,18.8,58.5,17.1z M62.9,17.1c0-3.2,2-5.2,5-5.2s5,1.9,5,5.2s-1.9,5.2-5,5.2S63,20.4,62.9,17.1L62.9,17.1z M69.8,17.1
	c0-1.8-0.7-2.8-1.8-2.8c-1.1,0-1.8,1-1.8,2.8s0.7,2.8,1.8,2.8C69.1,19.9,69.8,19,69.8,17.1L69.8,17.1z M74.2,9.9
	c0-0.9,0.7-1.7,1.6-1.7c0.9,0,1.7,0.7,1.7,1.6c0,0.9-0.7,1.7-1.6,1.7c0,0,0,0-0.1,0C75,11.4,74.3,10.8,74.2,9.9
	C74.3,9.9,74.3,9.9,74.2,9.9L74.2,9.9z M74.2,12.2h3.2v9.9h-3.2L74.2,12.2z M89.2,17.1c0,3.2-1.4,5.1-3.9,5.1
	c-1.3,0.1-2.5-0.7-3-1.8h-0.1v4.9H79v-13h3.2V14h0.1c0.5-1.2,1.7-2,3-1.9C87.8,12.1,89.2,13.9,89.2,17.1L89.2,17.1z M85.9,17.1
	c0-1.6-0.7-2.6-1.9-2.6c-1.1,0-1.8,1-1.9,2.6c0,1.6,0.7,2.6,1.9,2.6C85.2,19.7,86,18.8,85.9,17.1L85.9,17.1z M94.7,12
	c2.7,0,4.4,1.3,4.4,3.3h-2.9c0-0.7-0.6-1.2-1.5-1.2s-1.3,0.3-1.3,0.8s0.4,0.7,1.1,0.8l2.1,0.4c2,0.4,2.8,1.2,2.8,2.7
	c0,2-1.9,3.4-4.6,3.4S90.2,21,90,19h3.1c0.1,0.7,0.7,1.2,1.6,1.2s1.4-0.3,1.4-0.8s-0.3-0.6-1.1-0.8l-1.9-0.4
	c-1.9-0.4-2.9-1.4-2.9-2.9C90.3,13.2,92,12,94.7,12L94.7,12z M110.1,22.1h-3.1v-1.9h-0.1c-0.4,1.3-1.6,2.1-2.9,2
	c-1.9,0.1-3.5-1.4-3.5-3.3c0-0.1,0-0.3,0-0.4v-6.3h3.2v5.6c0,1.2,0.6,1.8,1.6,1.8c0.9,0,1.6-0.7,1.6-1.7c0-0.1,0-0.2,0-0.2v-5.5h3.2
	L110.1,22.1z M111.6,12.2h3.1v1.9h0.1c0.4-1.3,1.5-2.1,2.8-2.1c1.3-0.1,2.5,0.8,2.7,2.1h0.1c0.4-1.3,1.6-2.2,3-2.1
	c1.7-0.1,3.2,1.3,3.2,3c0,0.1,0,0.2,0,0.4v6.7h-3.2v-5.9c0-1-0.5-1.6-1.4-1.6c-0.8,0-1.4,0.6-1.4,1.4c0,0.1,0,0.1,0,0.2v5.8h-3.1
	v-5.9c0-1-0.5-1.5-1.4-1.5c-0.8,0-1.4,0.6-1.4,1.4c0,0.1,0,0.1,0,0.2v5.8h-3.2L111.6,12.2z"/>
<path class="st0" d="M29.6,9.9c0-5.5-4.4-9.9-9.9-9.9c-2.8,0-5.4,1.2-7.3,3.2H0v26.3h26.3V17.2C28.4,15.4,29.6,12.7,29.6,9.9z
	 M24.6,9.9c0,2.7-2.1,4.8-4.8,4.8c-2.7,0-4.8-2.1-4.8-4.8c0-2.7,2.1-4.8,4.8-4.8c0,0,0,0,0,0C22.4,5.1,24.6,7.2,24.6,9.9z
	 M21.3,24.5H5.1V8.3H10C9.9,8.8,9.9,9.3,9.9,9.9c0,5.5,4.4,9.9,9.9,9.9c0.5,0,1,0,1.5-0.1V24.5z"/>
</svg>
