<?xml version="1.0" encoding="iso-8859-1"?>
<!-- Generator: Adobe Illustrator 19.0.0, SVG Export Plug-In . SVG Version: 6.00 Build 0)  -->
<svg version="1.1" id="Layer_1" xmlns="http://www.w3.org/2000/svg" xmlns:xlink="http://www.w3.org/1999/xlink" x="0px" y="0px"
	 viewBox="0 0 329.788 329.788" style="enable-background:new 0 0 329.788 329.788;" xml:space="preserve">
<g id="XMLID_938_">
	<g>
		<path d="M300.52,178.059c-0.886-10.624-5.832-20.248-13.927-27.098c-9.315-7.883-21.444-10.85-32.905-8.756V36.155
			c0-18.744-13.796-34.217-32.09-35.99c-9.959-0.965-19.937,2.342-27.354,9.074c-7.434,6.747-11.696,16.344-11.696,26.327V65.83
			c-4.706-2.301-9.989-3.597-15.57-3.597c-13.165,0-24.674,7.195-30.824,17.854c-5.765-4.027-12.767-6.398-20.317-6.398
			c-18.939,0-34.464,14.879-35.51,33.562c-3.715-1.829-7.803-3.032-12.151-3.453c-9.966-0.965-19.937,2.341-27.354,9.074
			c-7.433,6.747-11.696,16.343-11.696,26.327l13.581,190.589h198.37l12.039-77.605l38.156-45.094
			C298.119,198.993,301.404,188.683,300.52,178.059z M276.002,194.17l-38.525,45.529c-0.254,0.3-0.557,0.629-0.951,1.033
			l-2.229,2.289l-10.358,66.766H61.327l-12.2-170.9c0.087-4.244,1.948-8.313,5.135-11.207c3.298-2.994,7.553-4.398,11.982-3.977
			c7.862,0.763,14.021,7.827,14.021,16.084v20h20v-20v-30.528c0-8.586,6.985-15.57,15.57-15.57c8.586,0,15.571,6.984,15.571,15.57
			v50.528h20v-50.528V97.804c0-8.586,6.985-15.571,15.571-15.571s15.57,6.985,15.57,15.571v61.982h20V97.804V35.566
			c0-4.355,1.873-8.554,5.139-11.519c3.298-2.994,7.556-4.401,11.982-3.977c7.861,0.763,14.02,7.827,14.02,16.084v140.08
			l15.748-11.063c7.397-5.194,17.362-4.758,24.238,1.058c4.017,3.399,6.473,8.19,6.914,13.491
			C281.03,185.02,279.401,190.152,276.002,194.17z"/>
	</g>
</g>
<g>
</g>
<g>
</g>
<g>
</g>
<g>
</g>
<g>
</g>
<g>
</g>
<g>
</g>
<g>
</g>
<g>
</g>
<g>
</g>
<g>
</g>
<g>
</g>
<g>
</g>
<g>
</g>
<g>
</g>
</svg>
